<svg id="Capa_1" enable-background="new 0 0 512 512" height="512" viewBox="0 0 512 512" width="512" xmlns="http://www.w3.org/2000/svg"><g><g><g><path d="m101.212 422.73c-.496.592-1.033 1.146-1.595 1.647-2.886 2.571-6.548 3.874-10.882 3.874-11.513 0-20.879-9.366-20.879-20.879s9.366-20.88 20.879-20.88c4.185 0 8.221 1.232 11.671 3.563 2.276 1.537 5.364.938 6.902-1.336 1.537-2.275.938-5.365-1.337-6.902-5.1-3.446-11.061-5.267-17.236-5.267-16.995 0-30.821 13.827-30.821 30.822s13.827 30.821 30.821 30.821c6.749 0 12.798-2.21 17.495-6.392.92-.82 1.795-1.722 2.6-2.681 1.764-2.103 1.489-5.239-.614-7.003-2.106-1.766-5.239-1.489-7.004.613z"/><path d="m324.436 378.252c-.431.205-4.145 2.041-8.491 6.385v-3.116c0-2.745-2.225-4.971-4.971-4.971s-4.971 2.226-4.971 4.971v51.701c0 2.745 2.225 4.971 4.971 4.971s4.971-2.226 4.971-4.971v-30.809c0-1.256.835-4.244 6.43-10.133 3.341-3.518 6.241-5.003 6.358-5.062 2.456-1.188 3.498-4.138 2.325-6.607-1.176-2.48-4.138-3.536-6.622-2.359z"/><path d="m432.152 376.735c-5.064 0-10.143 1.711-14.34 5.284v-.814c0-2.745-2.225-4.971-4.971-4.971s-4.971 2.226-4.971 4.971v52.017c0 2.745 2.225 4.971 4.971 4.971s4.971-2.226 4.971-4.971v-25.106c0-13.024 5.629-21.439 14.34-21.439 3.333 0 5.844.916 7.677 2.8 3.04 3.126 4.524 9.211 4.292 17.599-.001.046-.002.091-.002.137v25.761c0 2.745 2.225 4.971 4.971 4.971s4.971-2.226 4.971-4.971v-25.694c.301-11.257-2.089-19.579-7.106-24.736-3.749-3.854-8.73-5.809-14.803-5.809z"/><path d="m213.862 351.157c-2.746 0-4.971 2.226-4.971 4.971v77.094c0 2.745 2.225 4.971 4.971 4.971s4.971-2.226 4.971-4.971v-77.094c0-2.745-2.225-4.971-4.971-4.971z"/><path d="m186.358 374.56c-2.746 0-4.971 2.226-4.971 4.971v53.69c0 2.745 2.225 4.971 4.971 4.971s4.971-2.226 4.971-4.971v-53.69c0-2.745-2.225-4.971-4.971-4.971z"/><circle cx="186.359" cy="359.024" r="7.095"/><path d="m159.83 382.336c-3.639-3.658-8.506-5.436-14.879-5.436-5.552 0-10.502 1.941-14.473 5.337v-26.109c0-2.745-2.225-4.971-4.971-4.971s-4.971 2.226-4.971 4.971v77.094c0 2.745 2.225 4.971 4.971 4.971s4.971-2.226 4.971-4.971v-26.464c0-11.726 5.951-19.916 14.473-19.916 4.26 0 8.157 1.713 9.917 5.755 1.897 4.357 2.052 9.507 2.028 14.18l.097 26.464c.01 2.739 2.234 4.953 4.989 4.953 2.745-.01 4.962-2.244 4.953-4.989l-.097-26.42c.06-11.814-2.166-19.582-7.008-24.449z"/><path d="m366.26 376.55c-7.697 0-15.162 3.244-20.439 8.842-14.943 15.855-7.288 43.755 12.84 50.994 3.331 1.198 6.865 1.807 10.404 1.807 4.739 0 9.088-1.065 12.924-3.166 2.408-1.318 3.291-4.34 1.973-6.748s-4.341-3.292-6.748-1.973c-2.355 1.29-5.097 1.944-8.149 1.944-9.509 0-17.537-6.396-20.05-15.106 0 0 40.373.079 40.383.079 1.317 0 2.58-.522 3.512-1.452 1.908-1.905 1.459-4.662 1.459-7.112 0-15.5-12.61-28.109-28.109-28.109zm-18.107 26.651c.761-9.342 8.592-16.709 18.106-16.709 9.551 0 17.404 7.408 18.115 16.78z"/><path d="m285.216 351.157c-2.746 0-4.971 2.226-4.971 4.971v28.597c-5.495-5.071-12.83-8.175-20.879-8.175-16.996 0-30.822 13.827-30.822 30.822s13.827 30.821 30.822 30.821c8.049 0 15.384-3.105 20.879-8.175v3.204c0 2.745 2.225 4.971 4.971 4.971s4.971-2.226 4.971-4.971v-77.094c0-2.745-2.225-4.971-4.971-4.971zm-25.85 77.094c-11.513 0-20.88-9.366-20.88-20.879s9.367-20.88 20.88-20.88 20.879 9.367 20.879 20.88-9.366 20.879-20.879 20.879z"/><path d="m343.484 326.757c2.697-.516 4.465-3.119 3.95-5.816l-16.251-85.036c-.64-3.136-3.218-5.364-6.413-5.543-3.204-.181-6.005 1.745-6.992 4.79-.017.056-.035.113-.051.17l-21.235 74.488-21.993-74.546c-.017-.058-.036-.117-.055-.175-1.018-3.035-3.851-4.934-7.043-4.717-3.194.213-5.748 2.469-6.365 5.671l-15.332 84.949c-.487 2.702 1.308 5.288 4.01 5.775 2.696.487 5.287-1.307 5.775-4.009l13.079-72.466 21.339 72.328c.017.059.036.118.056.176.952 2.834 3.592 4.731 6.58 4.731h.036c3.001-.015 5.641-1.944 6.567-4.799.018-.057.036-.114.052-.172l20.608-72.292 13.864 72.544c.514 2.696 3.112 4.464 5.814 3.949z"/><path d="m377.051 327.282-10.005 28.938c-.897 2.595.48 5.425 3.074 6.323.538.186 1.085.274 1.624.274 2.06 0 3.987-1.291 4.698-3.348l37.043-107.142c.897-2.595-.48-5.425-3.074-6.323-2.592-.896-5.425.48-6.323 3.074l-21.829 63.139-22.393-63.175c-.918-2.588-3.759-3.941-6.347-3.025-2.587.918-3.942 3.759-3.024 6.346z"/><path d="m492.881 152.673h-100.05l-107.03-91.823c1.024-3.095 1.586-6.398 1.586-9.832 0-17.307-14.08-31.387-31.387-31.387s-31.387 14.081-31.387 31.387c0 3.434.562 6.737 1.586 9.832l-107.029 91.823h-100.051c-10.542 0-19.119 8.577-19.119 19.119v301.458c0 10.542 8.577 19.119 19.119 19.119h473.762c10.542 0 19.119-8.577 19.119-19.119v-301.458c0-10.542-8.577-19.119-19.119-19.119zm-236.881-118.129c9.084 0 16.474 7.391 16.474 16.474s-7.39 16.475-16.474 16.475-16.474-7.391-16.474-16.474 7.39-16.475 16.474-16.475zm-21.763 39.06c5.647 5.444 13.318 8.802 21.763 8.802s16.116-3.358 21.763-8.802l92.164 79.069h-227.854zm262.85 399.646c0 2.319-1.886 4.206-4.206 4.206h-473.762c-2.319 0-4.206-1.887-4.206-4.206v-301.458c0-2.319 1.886-4.206 4.206-4.206h473.762c2.319 0 4.206 1.887 4.206 4.206z"/></g></g><g><path d="m166.878 333.97c-2.375 0-4.75-.748-6.73-2.245-8.309-6.271-28.616-21.704-37.708-29.506-8.471-7.27-15.054-15.616-19.567-24.807-4.587-9.337-9.385-23.744-6.199-39.357 1.741-8.533 5.834-16.098 11.834-21.878 7.837-7.549 18.566-11.874 29.448-11.874h.101c10.886.026 21.055 4.08 28.822 11.318 7.77-7.239 17.938-11.292 28.822-11.318h.101c10.884 0 21.612 4.324 29.448 11.874 6 5.78 10.093 13.345 11.834 21.878 3.186 15.613-1.612 30.021-6.199 39.358-1.824 3.718-6.316 5.253-10.038 3.425-3.718-1.826-5.251-6.32-3.425-10.039 3.556-7.241 7.305-18.279 4.965-29.745-1.132-5.544-3.74-10.411-7.543-14.075-5.066-4.88-12.004-7.676-19.041-7.676-.021 0-.043 0-.064 0-8.701.021-16.694 4.015-21.93 10.956-1.632 2.164-4.223 3.456-6.93 3.456s-5.298-1.292-6.93-3.457c-5.234-6.941-13.228-10.935-21.93-10.956-.021 0-.043 0-.064 0-7.037 0-13.974 2.796-19.041 7.677-3.803 3.664-6.411 8.53-7.543 14.075-2.34 11.466 1.409 22.504 4.965 29.745 3.613 7.356 8.954 14.098 15.874 20.037 8.127 6.975 26.451 20.95 34.669 27.174 7.96-6.029 25.594-19.477 34.017-26.617 3.16-2.678 7.893-2.289 10.57.871 2.679 3.16 2.289 7.892-.871 10.571-9.412 7.98-29 22.863-36.984 28.892-1.984 1.495-4.359 2.243-6.733 2.243z"/></g></g></svg>