<svg height="472pt" viewBox="0 -8 472.87586 472" width="472pt" xmlns="http://www.w3.org/2000/svg"><path d="m472.785156 97.617188-8.65625-41.710938 7.351563-44.921875c.417969-2.535156-.414063-5.121094-2.230469-6.941406-1.816406-1.820313-4.398438-2.660157-6.9375-2.25l-46.535156 7.480469-43.429688-8.679688c-1.035156-.207031-2.101562-.207031-3.136718 0l-43.25 8.648438-43.199219-8.648438c-1.035157-.207031-2.101563-.207031-3.136719 0l-43.253906 8.648438-43.199219-8.648438c-1.039063-.207031-2.109375-.207031-3.144531 0l-43.203125 8.648438-43.199219-8.648438c-1.035156-.207031-2.105469-.207031-3.144531 0l-43.414063 8.679688-46.433594-7.472657c-2.539062-.410156-5.121093.425781-6.9375 2.242188-1.820312 1.820312-2.652343 4.402343-2.238281 6.941406l7.359375 45.007813-8.65625 41.800781c-.2148435 1.074219-.2148435 2.175781 0 3.25l8.617188 41.597656-8.617188 41.601563c-.2148435 1.070312-.2148435 2.175781 0 3.246093l8.617188 41.601563-8.617188 41.601562c-.2148435 1.070313-.2148435 2.175782 0 3.246094l8.617188 41.601562-8.617188 41.597657c-.2148435 1.074219-.2148435 2.183593 0 3.257812l8.65625 41.710938-7.351562 44.921875c-.355469 2.511718.503906 5.042968 2.308594 6.820312 1.808593 1.78125 4.355468 2.597656 6.859374 2.203125l46.539063-7.480469 43.429687 8.679688c1.035157.207031 2.101563.207031 3.136719 0l43.246094-8.648438 43.203125 8.648438c1.035156.207031 2.097656.207031 3.132812 0l43.203126-8.648438 43.199218 8.648438c1.035156.207031 2.105469.207031 3.144532 0l43.199218-8.648438 43.199219 8.648438c1.039063.203125 2.105469.203125 3.144531 0l43.359375-8.679688 46.402344 7.472657c2.539063.410156 5.121094-.425781 6.941406-2.246094 1.820313-1.820313 2.648438-4.40625 2.234375-6.945313l-7.363281-44.859374 8.65625-41.949219c.21875-1.070313.21875-2.171875 0-3.242188l-8.613281-41.597656 8.613281-41.5625c.21875-1.070313.21875-2.175781 0-3.246094l-8.613281-41.601562 8.613281-41.597657c.21875-1.074218.21875-2.175781 0-3.25l-8.613281-41.597656 8.613281-41.5625c.253906-1.035156.300781-2.113281.144531-3.167968zm-16 88-8.613281 41.601562c-.21875 1.070312-.21875 2.175781 0 3.246094l8.613281 41.601562-8.613281 41.597656c-.21875 1.070313-.21875 2.171876 0 3.242188l8.613281 41.601562-8.613281 41.78125c-.195313.960938-.21875 1.945313-.066406 2.914063l5.808593 35.359375-36.914062-5.9375c-.941406-.148438-1.902344-.132812-2.839844.050781l-43.199218 8.644531-43.199219-8.644531c-1.035157-.207031-2.101563-.207031-3.136719 0l-43.199219 8.644531-43.199219-8.644531c-1.039062-.210937-2.105468-.210937-3.144531 0l-43.199219 8.644531-43.199218-8.644531c-1.039063-.210937-2.109375-.210937-3.144532 0l-43.367187 8.566407-43.296875-8.648438c-.527344-.101562-1.0625-.15625-1.601562-.152344-.421876 0-.847657.035156-1.261719.105469l-36.960938 5.976563 5.800781-35.425782c.148438-.96875.128907-1.957031-.066406-2.917968l-8.613281-41.585938 8.613281-41.558594c.214844-1.074218.214844-2.183594 0-3.257812l-8.613281-41.597656 8.613281-41.601563c.214844-1.070313.214844-2.175781 0-3.25l-8.613281-41.597656 8.613281-41.5625c.214844-1.066407.214844-2.167969 0-3.238281l-8.613281-41.601563 8.613281-41.597656c.195313-.957031.214844-1.941407.066406-2.90625l-5.808593-35.519531 36.910156 5.9375c.941406.15625 1.90625.140624 2.839844-.046876l43.199219-8.648437 43.203124 8.648437c1.035157.207032 2.097657.207032 3.132813 0l43.203125-8.648437 43.199219 8.648437c1.039062.207032 2.105469.207032 3.144531 0l43.199219-8.648437 43.199219 8.648437c1.039062.207032 2.105468.207032 3.144531 0l43.359375-8.59375 43.296875 8.648438c.9375.1875 1.898437.203125 2.839843.046875l36.984376-5.976563-5.800782 35.425782c-.152344.96875-.128906 1.957031.0625 2.917968l8.617188 41.554688-8.617188 41.597656c-.214844 1.074219-.214844 2.183594 0 3.257813zm0 0"/><path d="m428.472656 36.921875h-384c-4.417968 0-8 3.582031-8 8v368c0 4.417969 3.582032 8 8 8h384c4.417969 0 8-3.582031 8-8v-368c0-4.417969-3.582031-8-8-8zm-8 368h-368v-352h368zm0 0"/><path d="m366.816406 106.578125c3.140625 3.03125 8.128906 2.988281 11.214844-.097656 3.085938-3.085938 3.128906-8.074219.097656-11.214844l-32-32c-3.136718-3.03125-8.128906-2.988281-11.214844.097656-3.085937 3.085938-3.128906 8.074219-.097656 11.214844zm0 0"/><path d="m382.816406 122.578125 16 16c3.140625 3.03125 8.128906 2.988281 11.214844-.097656 3.085938-3.085938 3.128906-8.074219.097656-11.214844l-16-16c-3.136718-3.03125-8.128906-2.988281-11.214844.097656-3.085937 3.085938-3.128906 8.074219-.097656 11.214844zm0 0"/><path d="m382.816406 170.578125c3.140625 3.03125 8.128906 2.988281 11.214844-.097656 3.085938-3.085938 3.128906-8.074219.097656-11.214844l-80-80c-3.136718-3.03125-8.128906-2.988281-11.214844.097656-3.085937 3.085938-3.128906 8.074219-.097656 11.214844zm0 0"/></svg>