<svg height="512pt" viewBox="0 0 512 512" width="512pt" xmlns="http://www.w3.org/2000/svg"><path d="m59.734375 85.332031c14.136719 0 25.597656-11.460937 25.597656-25.597656 0-14.140625-11.460937-25.601563-25.597656-25.601563-14.140625 0-25.601563 11.460938-25.601563 25.601563.015626 14.132813 11.46875 25.582031 25.601563 25.597656zm0-34.132812c4.710937 0 8.53125 3.820312 8.53125 8.535156 0 4.710937-3.820313 8.53125-8.53125 8.53125-4.714844 0-8.535156-3.820313-8.535156-8.53125.003906-4.710937 3.824219-8.53125 8.535156-8.535156zm0 0"/><path d="m494.933594 59.734375h-375.46875c0-32.992187-26.742188-59.734375-59.730469-59.734375-32.992187 0-59.734375 26.742188-59.734375 59.734375v392.53125c0 32.992187 26.742188 59.734375 59.734375 59.734375 32.988281 0 59.730469-26.742188 59.730469-59.734375h375.46875c9.421875-.011719 17.054687-7.644531 17.066406-17.066406v-358.398438c-.011719-9.421875-7.644531-17.054687-17.066406-17.066406zm0 320.730469-54.734375 54.734375h-18.53125l73.265625-73.265625zm0-42.664063-97.402344 97.398438h-52.664062l150.066406-150.066407zm0-76.800781-174.199219 174.199219h-18.535156l192.734375-192.730469zm0-42.667969-216.867188 216.867188h-52.667968l269.535156-269.53125zm0-76.800781-293.667969 293.667969h-18.53125l312.199219-312.199219zm-293.667969-64.730469-81.800781 81.800781v-18.535156l63.269531-63.265625zm76.800781 0-158.601562 158.597657v-52.664063l105.933594-105.933594zm42.667969 0-201.269531 201.265625v-18.53125l182.734375-182.734375zm76.796875 0-278.066406 278.066407v-52.667969l225.402344-225.398438zm-278.066406 302.199219 302.203125-302.199219h18.53125l-320.734375 320.730469zm39.136718-302.199219-39.136718 39.132813v-39.132813zm-98.867187-59.734375c23.5625 0 42.664063 19.101563 42.664063 42.667969 0 23.5625-19.101563 42.664063-42.664063 42.664063-23.566406 0-42.667969-19.101563-42.667969-42.664063.027344-23.554687 19.113282-42.640625 42.667969-42.667969zm0 477.867188c-23.554687-.027344-42.640625-19.113282-42.667969-42.667969v-350.804687c11.210938 11.515624 26.597656 18.011718 42.667969 18.011718s31.457031-6.496094 42.664063-18.011718v350.804687c-.027344 23.554687-19.113282 42.640625-42.664063 42.667969zm59.730469-73.265625 344.867187-344.867188h30.601563v22.066407l-336.332032 336.332031h-39.136718zm344.867187 13.53125 30.601563-30.597657v30.597657zm0 0"/></svg>